<svg width="18" height="20" viewBox="0 0 18 20" fill="none" xmlns="http://www.w3.org/2000/svg">
<path d="M2 20H16C16.5304 20 17.0391 19.7893 17.4142 19.4142C17.7893 19.0391 18 18.5304 18 18V9C18.0008 8.86839 17.9755 8.73793 17.9258 8.61609C17.876 8.49426 17.8027 8.38344 17.71 8.29L9.71 0.289999C9.52264 0.103748 9.26919 -0.000793457 9.005 -0.000793457C8.74081 -0.000793457 8.48736 0.103748 8.3 0.289999L0.3 8.29C0.205512 8.38261 0.130342 8.49306 0.0788453 8.61493C0.0273487 8.73681 0.00054925 8.86769 0 9V18C0 18.5304 0.210714 19.0391 0.585786 19.4142C0.960859 19.7893 1.46957 20 2 20ZM7 18V13H11V18H7ZM2 9.41L9 2.41L16 9.41V18H13V13C13 12.4696 12.7893 11.9609 12.4142 11.5858C12.0391 11.2107 11.5304 11 11 11H7C6.46957 11 5.96086 11.2107 5.58579 11.5858C5.21071 11.9609 5 12.4696 5 13V18H2V9.41Z" fill="black"/>
</svg>
