<svg id="Layer_1" data-name="Layer 1" xmlns="http://www.w3.org/2000/svg" viewBox="0 0 12 17"><defs><style>.cls-1{fill:#c2c2c3;fill-rule:evenodd;}</style></defs><path class="cls-1" d="M1.5,1.5v14h9V1.5ZM1,0A1,1,0,0,0,0,1V16a1,1,0,0,0,1,1H11a1,1,0,0,0,1-1V1a1,1,0,0,0-1-1Z"/><path class="cls-1" d="M9,3.5a.5.5,0,0,1-.5.5h-5a.5.5,0,0,1,0-1h5A.5.5,0,0,1,9,3.5Z"/><path class="cls-1" d="M9,6.5a.5.5,0,0,1-.5.5h-5a.5.5,0,0,1,0-1h5A.5.5,0,0,1,9,6.5Z"/><path class="cls-1" d="M9,9.5a.5.5,0,0,1-.5.5h-5a.5.5,0,0,1,0-1h5A.5.5,0,0,1,9,9.5Z"/></svg>