<svg id="Layer_1" data-name="Layer 1" xmlns="http://www.w3.org/2000/svg" viewBox="0 0 20 20"><defs><style>.cls-1{fill:#c2c2c3;}</style></defs><path class="cls-1" d="M10,0A10.1,10.1,0,0,0,6.17.76a10,10,0,0,0,0,18.48A10.1,10.1,0,0,0,10,20,10,10,0,0,0,20,10a10.1,10.1,0,0,0-.76-3.83A10,10,0,0,0,13.83.76,10.1,10.1,0,0,0,10,0ZM5.07,16.28c.43-.9,3-1.78,4.93-1.78s4.5.88,4.93,1.78a7.93,7.93,0,0,1-9.86,0Zm11.29-1.45c-1.43-1.74-4.9-2.33-6.36-2.33s-4.93.59-6.36,2.33A8,8,0,1,1,18,10,7.93,7.93,0,0,1,16.36,14.83ZM10,4a3.5,3.5,0,1,0,3.5,3.5A3.49,3.49,0,0,0,10,4Zm0,5a1.5,1.5,0,1,1,1.06-.44A1.5,1.5,0,0,1,10,9Z"/></svg>