<svg width="20" height="20" viewBox="0 0 20 20" fill="none" xmlns="http://www.w3.org/2000/svg">
<path fill-rule="evenodd" clip-rule="evenodd" d="M17.123 10.936C17.159 10.636 17.183 10.324 17.183 10C17.183 9.67602 17.159 9.36402 17.111 9.06402L19.139 7.48002C19.319 7.33602 19.367 7.07202 19.259 6.86802L17.339 3.54402C17.219 3.32802 16.967 3.25602 16.751 3.32802L14.363 4.28802C13.859 3.90402 13.331 3.59202 12.743 3.35202L12.383 0.808024C12.347 0.568024 12.143 0.400024 11.903 0.400024H8.06302C7.82302 0.400024 7.63102 0.568024 7.59502 0.808024L7.23502 3.35202C6.64702 3.59202 6.10702 3.91602 5.61502 4.28802L3.22702 3.32802C3.01102 3.24402 2.75902 3.32802 2.63902 3.54402L0.719017 6.86802C0.599017 7.08402 0.647017 7.33602 0.839017 7.48002L2.86702 9.06402C2.81902 9.36402 2.78302 9.68802 2.78302 10C2.78302 10.312 2.80702 10.636 2.85502 10.936L0.827017 12.52C0.647017 12.664 0.599017 12.928 0.707017 13.132L2.62702 16.456C2.74702 16.672 2.99902 16.744 3.21502 16.672L5.60302 15.712C6.10702 16.096 6.63502 16.408 7.22302 16.648L7.58302 19.192C7.63102 19.432 7.82302 19.6 8.06302 19.6H11.903C12.143 19.6 12.347 19.432 12.371 19.192L12.731 16.648C13.319 16.408 13.859 16.084 14.351 15.712L16.739 16.672C16.955 16.756 17.207 16.672 17.327 16.456L19.247 13.132C19.367 12.916 19.319 12.664 19.127 12.52L17.123 10.936ZM9.98302 13.6C8.00302 13.6 6.38302 11.98 6.38302 10C6.38302 8.02002 8.00302 6.40002 9.98302 6.40002C11.963 6.40002 13.583 8.02002 13.583 10C13.583 11.98 11.963 13.6 9.98302 13.6Z" fill="black" fill-opacity="0.87"/>
</svg>
